<svg version="1.2" xmlns="http://www.w3.org/2000/svg" viewBox="0 0 252 300" width="252" height="300"><defs><linearGradient id="P" gradientUnits="userSpaceOnUse"/><linearGradient id="g1" x2="1" href="#P" gradientTransform="matrix(252,0,0,299.604,0,149.802)"><stop stop-color="#ffb75e"/><stop offset="1" stop-color="#ed8f03"/></linearGradient></defs><style>.a{fill:url(#g1)}</style><path fill-rule="evenodd" class="a" d="m172.2 110.1c3.4-0.8 6.4-2.2 8.8-4.1 2.2-1.7 3.9-3.9 4.8-6.5 1.3-3.6 1-8.1-1.4-13.2-11.7 9.3-23.4 16-32.6 20.6 6.7 3.8 14.1 4.6 20.4 3.2zm-20.4 42.7q-0.7-0.6-1.3-1.3-0.5-0.8-0.7-1.7-0.3-1-0.2-1.9c1.1-23.5-5.3-34-13.9-40.5-3-2.3-6.4-3.5-9.7-3.5-3.3 0-6.7 1.2-9.7 3.5-8.6 6.5-15 17-13.9 40.5q0.1 0.9-0.2 1.9-0.2 0.9-0.7 1.7-0.6 0.7-1.3 1.3-0.7 0.6-1.6 1l-12.2 7c24.8 13.9 31.6 39.7 39.6 64.8 8-25.1 14.8-50.9 39.6-64.8l-12.2-7q-0.9-0.4-1.6-1zm-66.1-144.4c-8.5 3.7-16.4 8.5-23.5 14.3-3.3 2.7-5.9 5.2-8.9 8.1-7.8 0.3-19.4-8.5-24.7-16.7 9.2 30.2 51.3 65.9 80.4 79.6q0 0 0 0c5.2-4 11.1-6 17-6 5.9 0 11.8 2 17 6q0 0 0 0c29.1-13.7 71.2-49.4 80.4-79.6-5.3 8.2-16.9 17-24.7 16.7-3-2.9-5.6-5.4-8.9-8.1-7.1-5.8-15-10.6-23.5-14.3-12.2-5.3-26.3-8-40.3-8.4-14 0.4-28.1 3.1-40.3 8.4zm14.5 98.5c-9.2-4.6-20.9-11.3-32.6-20.6-2.4 5.1-2.7 9.6-1.4 13.2 0.9 2.6 2.6 4.8 4.8 6.5 2.4 1.9 5.4 3.3 8.8 4.1 6.3 1.4 13.7 0.6 20.4-3.2zm99-27.7c3.9 8.1 5.2 17.2 2.1 25.8-1.9 5.5-5.5 10.3-10.1 13.9-4.5 3.6-9.8 6-15.4 7.2-3.6 0.8-7.3 1.2-10.9 1 0.8 4.9 1.2 9.9 1.2 15l32.7 18.9-25.2 14.1q-0.8 0.4-1.5 0.9-0.7 0.4-1.5 0.9-0.7 0.5-1.4 1-0.7 0.5-1.3 1.1c-20.8 18.6-33.3 73.8-41.9 100.8-8.6-27-21.1-82.2-41.9-100.8q-0.6-0.6-1.3-1.1-0.7-0.5-1.4-1-0.8-0.5-1.5-0.9-0.7-0.5-1.5-0.9l-25.2-14.1 32.7-18.9c0-5.1 0.4-10.1 1.2-15-3.6 0.2-7.3-0.2-10.9-1-5.6-1.2-10.9-3.6-15.4-7.2-4.6-3.6-8.2-8.4-10.1-13.9-3.1-8.6-1.8-17.7 2.1-25.8l2-4.2c-6.4-6.5-12.1-13.7-16.6-20.1l-2.3 4.4c-7.5 14.9-11.4 29.8-11.4 46.5v26.5l-0.1 13.8c-0.5 33.7-7.9 67.9-24.4 99.2l34.6-28 24.5 39.8 25.8-24.2 41.1 66.7 41.1-66.7 25.8 24.2 24.5-39.8 34.6 27.9c-16.5-31.2-23.9-65.4-24.4-99.1l-0.1-13.8v-26.5c0-16.7-3.9-31.6-11.4-46.5l-2.3-4.4c-4.5 6.4-10.2 13.6-16.6 20.1 0 0 2 4.2 2 4.2z"/></svg>